<svg xmlns="http://www.w3.org/2000/svg" xmlns:xlink="http://www.w3.org/1999/xlink" width="820" zoomAndPan="magnify" viewBox="0 0 615 615.000004" height="820" preserveAspectRatio="xMidYMid meet" version="1.0"><path fill="#5c8dbc" d="M 578.242188 181.851562 C 578.242188 171.628906 576.039062 162.59375 571.613281 154.84375 C 567.269531 147.21875 560.769531 140.828125 552.042969 135.777344 C 479.976562 94.253906 407.867188 52.855469 335.824219 11.289062 C 316.402344 0.0859375 297.574219 0.492188 278.304688 11.859375 C 249.628906 28.761719 106.027344 110.984375 63.226562 135.753906 C 45.613281 145.949219 37.039062 161.550781 37.035156 181.832031 C 37.007812 265.347656 37.035156 348.84375 37.007812 432.363281 C 37.011719 442.355469 39.105469 451.203125 43.335938 458.84375 C 47.683594 466.695312 54.28125 473.277344 63.214844 478.441406 C 106.003906 503.203125 249.609375 585.410156 278.292969 602.320312 C 297.585938 613.707031 316.410156 614.109375 335.832031 602.890625 C 407.875 561.324219 480.007812 519.925781 552.074219 478.417969 C 561.011719 473.253906 567.597656 466.671875 571.960938 458.820312 C 576.175781 451.203125 578.269531 442.332031 578.269531 432.320312 C 578.269531 432.320312 578.269531 265.371094 578.25 181.851562 " fill-opacity="1" fill-rule="nonzero"/><path fill="#1a4674" d="M 308.460938 306.28125 L 43.339844 458.839844 C 47.683594 466.691406 54.28125 473.273438 63.214844 478.4375 C 106.003906 503.203125 249.609375 585.40625 278.292969 602.320312 C 297.585938 613.707031 316.410156 614.109375 335.832031 602.890625 C 407.875 561.320312 480.007812 519.921875 552.074219 478.417969 C 561.011719 473.253906 567.597656 466.671875 571.960938 458.820312 L 308.46875 306.28125 " fill-opacity="1" fill-rule="nonzero"/><path fill="#1a4674" d="M 229.9375 351.46875 C 245.363281 378.390625 274.367188 396.550781 307.636719 396.550781 C 341.117188 396.550781 370.277344 378.15625 385.632812 350.960938 L 308.460938 306.28125 L 229.9375 351.46875 " fill-opacity="1" fill-rule="nonzero"/><path fill="#1b598e" d="M 578.242188 181.851562 C 578.242188 171.628906 576.039062 162.59375 571.613281 154.84375 L 308.460938 306.28125 L 571.953125 458.820312 C 576.164062 451.199219 578.261719 442.332031 578.261719 432.320312 C 578.261719 432.320312 578.261719 265.367188 578.242188 181.851562 " fill-opacity="1" fill-rule="nonzero"/><path fill="#ffffff" d="M 563.757812 317.179688 L 543.171875 317.179688 L 543.171875 337.753906 L 522.566406 337.753906 L 522.566406 317.179688 L 501.980469 317.179688 L 501.980469 296.609375 L 522.566406 296.609375 L 522.566406 276.035156 L 543.171875 276.035156 L 543.171875 296.609375 L 563.757812 296.609375 L 563.757812 317.179688 " fill-opacity="1" fill-rule="nonzero"/><path fill="#ffffff" d="M 488.617188 317.179688 L 468.035156 317.179688 L 468.035156 337.753906 L 447.449219 337.753906 L 447.449219 317.179688 L 426.863281 317.179688 L 426.863281 296.609375 L 447.449219 296.609375 L 447.449219 276.035156 L 468.035156 276.035156 L 468.035156 296.609375 L 488.617188 296.609375 L 488.617188 317.179688 " fill-opacity="1" fill-rule="nonzero"/><path fill="#ffffff" d="M 385.632812 350.960938 C 370.277344 378.15625 341.117188 396.550781 307.636719 396.550781 C 274.367188 396.550781 245.363281 378.390625 229.9375 351.46875 C 222.441406 338.390625 218.132812 323.253906 218.132812 307.085938 C 218.132812 257.6875 258.207031 217.640625 307.636719 217.640625 C 340.695312 217.640625 369.539062 235.570312 385.039062 262.214844 L 463.269531 217.195312 C 432.179688 163.546875 374.132812 127.453125 307.636719 127.453125 C 208.367188 127.453125 127.894531 207.882812 127.894531 307.085938 C 127.894531 339.636719 136.558594 370.15625 151.699219 396.488281 C 182.714844 450.417969 240.933594 486.734375 307.636719 486.734375 C 374.472656 486.734375 432.773438 450.269531 463.734375 396.191406 L 385.632812 350.960938 " fill-opacity="1" fill-rule="nonzero"/></svg>