<svg xmlns="http://www.w3.org/2000/svg" xmlns:xlink="http://www.w3.org/1999/xlink" width="820" zoomAndPan="magnify" viewBox="0 0 615 615.000004" height="820" preserveAspectRatio="xMidYMid meet" version="1.0"><defs><clipPath id="20880c4f2c"><path d="M 98.113281 127 L 515.9375 127 L 515.9375 601.753906 L 98.113281 601.753906 Z M 98.113281 127 " clip-rule="nonzero"/></clipPath><clipPath id="4a8790cbc9"><path d="M 137 11.714844 L 215 11.714844 L 215 92 L 137 92 Z M 137 11.714844 " clip-rule="nonzero"/></clipPath><clipPath id="045fb2297c"><path d="M 226 11.714844 L 300 11.714844 L 300 92 L 226 92 Z M 226 11.714844 " clip-rule="nonzero"/></clipPath><clipPath id="fe8d367c46"><path d="M 311 11.714844 L 401 11.714844 L 401 92 L 311 92 Z M 311 11.714844 " clip-rule="nonzero"/></clipPath><clipPath id="bdb4cd362d"><path d="M 413 11.714844 L 478 11.714844 L 478 92 L 413 92 Z M 413 11.714844 " clip-rule="nonzero"/></clipPath></defs><g clip-path="url(#20880c4f2c)"><path fill="#e44d26" d="M 515.816406 127.667969 L 477.789062 554.28125 L 306.84375 601.730469 L 136.375 554.34375 L 98.390625 127.667969 L 515.808594 127.660156 L 515.824219 127.660156 Z M 515.816406 127.667969 " fill-opacity="1" fill-rule="nonzero"/></g><path fill="#f16529" d="M 307.105469 565.460938 L 445.242188 527.121094 L 477.738281 162.558594 L 307.105469 162.554688 Z M 307.105469 565.460938 " fill-opacity="1" fill-rule="nonzero"/><path fill="#ebebeb" d="M 233.179688 267.214844 L 307.105469 267.214844 L 307.105469 214.878906 L 176.070312 214.878906 L 177.320312 228.921875 L 190.164062 373.128906 L 307.105469 373.128906 L 307.105469 320.808594 L 237.957031 320.808594 Z M 233.179688 267.214844 " fill-opacity="1" fill-rule="nonzero"/><path fill="#ebebeb" d="M 244.957031 399.296875 L 192.5 399.296875 L 199.820312 481.46875 L 306.863281 511.226562 L 307.105469 511.160156 L 307.105469 456.710938 L 306.878906 456.777344 L 248.679688 441.03125 Z M 244.957031 399.296875 " fill-opacity="1" fill-rule="nonzero"/><g clip-path="url(#4a8790cbc9)"><path fill="#000000" d="M 137.230469 11.714844 L 163.785156 11.714844 L 163.785156 37.988281 L 188.078125 37.988281 L 188.078125 11.714844 L 214.636719 11.714844 L 214.636719 91.277344 L 188.082031 91.277344 L 188.082031 64.636719 L 163.785156 64.636719 L 163.785156 91.277344 L 137.230469 91.277344 Z M 137.230469 11.714844 " fill-opacity="1" fill-rule="nonzero"/></g><g clip-path="url(#045fb2297c)"><path fill="#000000" d="M 249.5625 38.101562 L 226.179688 38.101562 L 226.179688 11.714844 L 299.515625 11.714844 L 299.515625 38.101562 L 276.117188 38.101562 L 276.117188 91.277344 L 249.5625 91.277344 Z M 249.5625 38.101562 " fill-opacity="1" fill-rule="nonzero"/></g><g clip-path="url(#fe8d367c46)"><path fill="#000000" d="M 311.148438 11.714844 L 338.835938 11.714844 L 355.867188 39.671875 L 372.886719 11.714844 L 400.589844 11.714844 L 400.589844 91.277344 L 374.144531 91.277344 L 374.144531 51.84375 L 355.867188 80.132812 L 355.410156 80.132812 L 337.132812 51.84375 L 337.132812 91.277344 L 311.148438 91.277344 Z M 311.148438 11.714844 " fill-opacity="1" fill-rule="nonzero"/></g><g clip-path="url(#bdb4cd362d)"><path fill="#000000" d="M 413.808594 11.714844 L 440.367188 11.714844 L 440.367188 64.980469 L 477.722656 64.980469 L 477.722656 91.277344 L 413.808594 91.277344 Z M 413.808594 11.714844 " fill-opacity="1" fill-rule="nonzero"/></g><path fill="#ffffff" d="M 306.925781 373.128906 L 371.28125 373.128906 L 365.210938 440.996094 L 306.925781 456.761719 L 306.925781 511.191406 L 414.054688 481.46875 L 414.839844 472.621094 L 427.128906 334.851562 L 428.40625 320.808594 L 306.925781 320.808594 Z M 306.925781 373.128906 " fill-opacity="1" fill-rule="nonzero"/><path fill="#ffffff" d="M 306.925781 267.082031 L 306.925781 267.214844 L 433.152344 267.214844 L 434.199219 255.449219 L 436.585938 228.921875 L 437.832031 214.878906 L 306.925781 214.878906 Z M 306.925781 267.082031 " fill-opacity="1" fill-rule="nonzero"/></svg>