<svg xmlns="http://www.w3.org/2000/svg" xmlns:xlink="http://www.w3.org/1999/xlink" width="820" zoomAndPan="magnify" viewBox="0 0 615 615.000004" height="820" preserveAspectRatio="xMidYMid meet" version="1.0"><defs><clipPath id="060bc74c07"><path d="M 12.644531 52 L 605.679688 52 L 605.679688 564.867188 L 12.644531 564.867188 Z M 12.644531 52 " clip-rule="nonzero"/></clipPath></defs><g clip-path="url(#060bc74c07)"><path fill="#007fff" d="M 512.539062 402.128906 C 515.046875 400.6875 517.128906 398.617188 518.582031 396.117188 C 520.03125 393.621094 520.800781 390.785156 520.8125 387.894531 L 521.109375 292.5625 C 521.117188 289.671875 521.886719 286.835938 523.335938 284.339844 C 524.789062 281.839844 526.871094 279.765625 529.378906 278.328125 L 581.0625 248.644531 C 583.566406 247.203125 586.40625 246.449219 589.296875 246.453125 C 592.183594 246.460938 595.019531 247.222656 597.523438 248.667969 C 600.015625 250.117188 602.097656 252.195312 603.539062 254.695312 C 604.980469 257.199219 605.742188 260.035156 605.742188 262.925781 L 605.742188 436.242188 C 605.742188 439.140625 604.980469 441.988281 603.527344 444.496094 C 602.074219 447.003906 599.984375 449.085938 597.46875 450.527344 L 402.421875 562.546875 C 399.929688 563.980469 397.105469 564.734375 394.234375 564.734375 C 391.359375 564.738281 388.535156 563.992188 386.042969 562.566406 L 232.972656 475.023438 C 230.449219 473.582031 228.351562 471.5 226.894531 468.992188 C 225.433594 466.480469 224.667969 463.628906 224.664062 460.726562 L 224.664062 373.332031 C 224.664062 373.234375 224.78125 373.167969 224.878906 373.214844 C 224.960938 373.265625 225.078125 373.214844 225.078125 373.097656 L 225.078125 373.003906 C 225.078125 372.9375 225.109375 372.871094 225.175781 372.835938 L 351.246094 300.421875 C 351.363281 300.351562 351.3125 300.171875 351.179688 300.171875 C 351.144531 300.171875 351.113281 300.160156 351.085938 300.132812 C 351.0625 300.109375 351.046875 300.074219 351.046875 300.039062 L 351.296875 214.359375 C 351.308594 211.464844 350.554688 208.613281 349.113281 206.101562 C 347.671875 203.585938 345.59375 201.5 343.085938 200.042969 C 340.582031 198.589844 337.734375 197.824219 334.835938 197.820312 C 331.9375 197.820312 329.09375 198.578125 326.582031 200.027344 L 232.886719 254.015625 C 230.386719 255.457031 227.550781 256.214844 224.667969 256.214844 C 221.78125 256.214844 218.945312 255.457031 216.445312 254.015625 L 122.453125 199.902344 C 119.949219 198.460938 117.109375 197.699219 114.21875 197.703125 C 111.332031 197.707031 108.492188 198.464844 105.988281 199.910156 C 103.488281 201.355469 101.410156 203.433594 99.964844 205.9375 C 98.519531 208.4375 97.757812 211.277344 97.753906 214.167969 L 97.753906 369.019531 C 97.757812 371.902344 97.003906 374.738281 95.5625 377.242188 C 94.125 379.742188 92.054688 381.824219 89.558594 383.273438 C 87.0625 384.722656 84.226562 385.492188 81.339844 385.503906 C 78.457031 385.511719 75.617188 384.765625 73.109375 383.335938 L 20.949219 353.511719 C 18.421875 352.070312 16.324219 349.984375 14.863281 347.464844 C 13.40625 344.949219 12.640625 342.089844 12.644531 339.183594 L 13.109375 68.519531 C 13.113281 65.632812 13.878906 62.800781 15.324219 60.304688 C 16.769531 57.808594 18.847656 55.738281 21.34375 54.292969 C 23.84375 52.851562 26.675781 52.089844 29.5625 52.089844 C 32.445312 52.085938 35.28125 52.839844 37.785156 54.273438 L 216.460938 156.882812 C 218.957031 158.316406 221.785156 159.070312 224.667969 159.070312 C 227.546875 159.070312 230.375 158.316406 232.871094 156.882812 L 411.496094 54.269531 C 414 52.832031 416.84375 52.074219 419.730469 52.082031 C 422.621094 52.085938 425.460938 52.851562 427.960938 54.300781 C 430.460938 55.75 432.535156 57.828125 433.980469 60.332031 C 435.421875 62.839844 436.179688 65.675781 436.175781 68.566406 L 436.175781 339.292969 C 436.179688 342.191406 435.414062 345.035156 433.96875 347.542969 C 432.519531 350.050781 430.433594 352.132812 427.925781 353.578125 L 334.375 407.445312 C 331.863281 408.894531 329.777344 410.980469 328.328125 413.492188 C 326.882812 416.003906 326.121094 418.855469 326.128906 421.757812 C 326.136719 424.65625 326.90625 427.503906 328.367188 430.007812 C 329.828125 432.515625 331.921875 434.589844 334.441406 436.027344 L 386.042969 465.402344 C 388.535156 466.820312 391.359375 467.566406 394.226562 467.558594 C 397.097656 467.550781 399.914062 466.796875 402.402344 465.367188 L 512.542969 402.125 Z M 523.363281 159.273438 C 523.367188 162.1875 524.140625 165.046875 525.609375 167.5625 C 527.078125 170.082031 529.1875 172.164062 531.722656 173.597656 C 534.257812 175.03125 537.132812 175.769531 540.042969 175.734375 C 542.957031 175.695312 545.808594 174.886719 548.308594 173.390625 L 597.734375 143.738281 C 600.175781 142.277344 602.191406 140.207031 603.601562 137.734375 C 605 135.261719 605.742188 132.464844 605.742188 129.621094 L 605.742188 69.195312 C 605.738281 66.28125 604.960938 63.425781 603.492188 60.910156 C 602.023438 58.394531 599.910156 56.316406 597.375 54.882812 C 594.839844 53.449219 591.96875 52.714844 589.054688 52.75 C 586.144531 52.789062 583.296875 53.597656 580.796875 55.09375 L 531.375 84.746094 C 528.933594 86.207031 526.910156 88.277344 525.507812 90.75 C 524.105469 93.226562 523.367188 96.019531 523.363281 98.867188 L 523.363281 159.289062 Z M 523.363281 159.273438 " fill-opacity="1" fill-rule="nonzero"/></g></svg>