<svg xmlns="http://www.w3.org/2000/svg" xmlns:xlink="http://www.w3.org/1999/xlink" width="820" zoomAndPan="magnify" viewBox="0 0 615 615.000004" height="820" preserveAspectRatio="xMidYMid meet" version="1.0"><defs><clipPath id="c2598a8c2f"><path d="M 21 196.515625 L 72 196.515625 L 72 388 L 21 388 Z M 21 196.515625 " clip-rule="nonzero"/></clipPath><clipPath id="3157d68f1f"><path d="M 66 360 L 79 360 L 79 414.414062 L 66 414.414062 Z M 66 360 " clip-rule="nonzero"/></clipPath></defs><path fill="#599636" d="M 70.160156 197.335938 L 75.964844 208.257812 C 77.234375 210.234375 78.699219 212.054688 80.355469 213.714844 C 85.21875 218.578125 89.851562 223.675781 93.996094 229.136719 C 103.839844 242.066406 110.484375 256.425781 115.230469 271.972656 C 118.078125 281.464844 119.621094 291.191406 119.738281 301.039062 C 120.21875 330.460938 110.128906 355.730469 89.722656 376.730469 C 86.410156 380.066406 82.851562 383.109375 79.046875 385.867188 C 77.019531 385.867188 76.078125 384.269531 75.246094 382.902344 C 73.648438 380.238281 72.753906 377.324219 72.28125 374.359375 C 71.566406 370.800781 71.089844 367.242188 71.332031 363.5625 L 71.332031 361.898438 C 71.214844 361.542969 69.433594 198.175781 70.144531 197.34375 Z M 70.160156 197.335938 " fill-opacity="1" fill-rule="nonzero"/><g clip-path="url(#c2598a8c2f)"><path fill="#6cac48" d="M 70.160156 196.984375 C 69.917969 196.507812 69.679688 196.867188 69.445312 197.101562 C 69.5625 199.472656 68.730469 201.609375 67.421875 203.628906 C 65.996094 205.652344 64.097656 207.1875 62.199219 208.851562 C 51.640625 217.988281 43.339844 229.019531 36.691406 241.359375 C 27.910156 257.96875 23.285156 275.765625 21.984375 294.511719 C 21.398438 301.277344 24.117188 325.125 26.257812 332 C 32.066406 350.273438 42.507812 365.574219 56.09375 378.863281 C 59.417969 382.058594 62.976562 385.03125 66.652344 387.875 C 67.71875 387.875 67.839844 386.929688 68.074219 386.214844 C 68.542969 384.695312 68.898438 383.152344 69.140625 381.585938 C 70.207031 375.65625 70.804688 369.71875 71.511719 363.789062 L 70.207031 196.984375 Z M 70.160156 196.984375 " fill-opacity="1" fill-rule="nonzero"/></g><g clip-path="url(#3157d68f1f)"><path fill="#c2bfbf" d="M 75.980469 393.101562 C 76.222656 390.375 77.582031 388.121094 78.949219 385.867188 C 77.527344 385.28125 76.457031 384.089844 75.625 382.777344 C 74.910156 381.589844 74.320312 380.113281 73.847656 378.863281 C 72.183594 373.882812 71.820312 368.660156 71.351562 363.554688 L 71.351562 360.464844 C 70.765625 360.945312 70.636719 364.972656 70.636719 365.570312 C 70.28125 371.023438 69.574219 376.367188 68.507812 381.585938 C 68.148438 383.714844 67.921875 385.855469 66.609375 387.753906 C 66.609375 387.992188 66.609375 388.234375 66.726562 388.585938 C 68.859375 394.871094 69.457031 401.28125 69.816406 407.804688 L 69.816406 410.175781 C 69.816406 413.023438 69.699219 412.429688 72.070312 413.375 C 73.019531 413.730469 74.097656 413.851562 75.039062 414.5625 C 75.753906 414.5625 75.871094 413.976562 75.871094 413.496094 L 75.511719 409.582031 L 75.511719 398.660156 C 75.394531 396.761719 75.753906 394.859375 75.992188 393.082031 Z M 75.980469 393.101562 " fill-opacity="1" fill-rule="nonzero"/></g><path fill="#47474a" d="M 166.074219 343.480469 L 166.074219 354.777344 C 166.0625 355.226562 166.085938 355.671875 166.152344 356.117188 C 166.296875 357.457031 167.117188 358.269531 168.328125 358.644531 C 169.453125 358.945312 170.597656 359.167969 171.753906 359.316406 C 172.421875 359.390625 172.644531 359.683594 172.722656 360.402344 C 172.796875 362.933594 172.574219 363.230469 170.121094 363.078125 C 164.398438 362.78125 158.671875 362.710938 152.945312 363.078125 L 152.402344 363.078125 C 150.617188 363.15625 150.472656 363.003906 150.472656 361.21875 C 150.472656 360.921875 150.546875 360.550781 150.546875 360.25 C 150.546875 359.707031 150.917969 359.433594 151.441406 359.433594 C 152.636719 359.289062 153.746094 358.988281 154.867188 358.765625 C 156.429688 358.394531 157.316406 357.429688 157.46875 355.867188 C 157.6875 354.160156 157.6875 352.375 157.6875 350.660156 L 157.761719 330.738281 C 157.785156 330.148438 157.652344 329.597656 157.355469 329.089844 C 157.0625 328.578125 156.652344 328.183594 156.128906 327.910156 C 154.78125 327.160156 153.367188 326.566406 151.886719 326.125 C 151.441406 325.980469 150.996094 325.910156 150.625 325.679688 C 149.535156 325.15625 149.507812 324.195312 150.546875 323.597656 C 150.917969 323.378906 151.363281 323.226562 151.808594 323.152344 C 156.332031 322.484375 160.742188 321.367188 165.039062 319.804688 C 165.933594 319.507812 166.15625 319.585938 166.238281 320.472656 C 166.3125 321.019531 166.238281 321.671875 166.160156 322.183594 C 166.015625 323.152344 166.015625 324.113281 166.015625 325.011719 C 166.015625 325.382812 166.089844 325.757812 166.460938 325.980469 C 166.832031 326.203125 167.207031 325.980469 167.546875 325.761719 C 169.109375 324.566406 170.671875 323.457031 172.378906 322.5 C 174.828125 321.160156 177.4375 319.96875 180.269531 319.597656 C 183.695312 319.152344 186.660156 320.042969 189.265625 322.273438 C 190.347656 323.242188 191.289062 324.332031 192.089844 325.542969 C 192.835938 326.632812 192.90625 326.660156 193.875 325.914062 C 196.703125 323.832031 199.671875 321.976562 202.871094 320.636719 C 206.21875 319.222656 209.640625 319.003906 213.054688 320.191406 C 216.550781 321.453125 218.933594 323.90625 220.347656 327.253906 C 221.542969 329.929688 222.054688 332.691406 222.054688 335.574219 L 222.054688 355.496094 C 222.054688 356.835938 222.597656 357.671875 223.914062 358.324219 C 225.328125 358.871094 226.890625 359.140625 228.375 359.441406 C 229.34375 359.660156 229.34375 359.660156 229.34375 360.636719 C 229.199219 363.085938 228.972656 363.238281 226.589844 363.085938 C 220.621094 362.75 214.648438 362.75 208.675781 363.085938 C 207.480469 363.160156 207.480469 363.160156 207.414062 361.96875 L 207.414062 361.601562 C 207.339844 359.585938 207.339844 359.585938 209.273438 359.152344 L 211.207031 358.628906 C 211.535156 358.554688 211.839844 358.425781 212.125 358.246094 C 212.40625 358.066406 212.652344 357.84375 212.863281 357.582031 C 213.070312 357.316406 213.230469 357.027344 213.34375 356.710938 C 213.457031 356.394531 213.511719 356.066406 213.511719 355.730469 L 213.730469 350.15625 L 213.582031 335.585938 C 213.527344 334.277344 213.253906 333.011719 212.769531 331.792969 C 210.90625 327.257812 206.820312 325.625 202.878906 326.070312 C 199.902344 326.371094 197.300781 327.558594 194.847656 329.269531 C 194.324219 329.640625 193.957031 330.085938 194.03125 330.832031 C 194.699219 335.59375 194.25 340.351562 194.332031 345.105469 L 194.332031 355.441406 C 194.332031 357.304688 195.078125 358.195312 196.859375 358.640625 L 200.289062 359.386719 C 200.808594 359.460938 201.105469 359.683594 201.105469 360.277344 L 201.105469 360.824219 C 201.027344 362.90625 200.886719 363 198.796875 362.976562 C 192.851562 362.675781 186.898438 362.757812 181.03125 362.976562 C 179.015625 363.054688 178.855469 362.828125 178.945312 360.800781 C 179.023438 359.605469 179.164062 359.539062 180.285156 359.316406 L 182.734375 358.871094 C 184.910156 358.421875 185.707031 357.605469 185.855469 355.300781 L 186.074219 350.316406 L 185.925781 335.375 C 185.777344 333.515625 185.382812 331.730469 184.363281 330.023438 C 182.878906 327.269531 180.554688 325.859375 177.375 325.707031 C 174.175781 325.488281 171.351562 326.675781 168.667969 328.15625 C 166.808594 329.242188 165.992188 330.53125 166.140625 332.691406 L 166.140625 343.546875 Z M 306.144531 343.929688 L 306.144531 354.414062 C 306.15625 355.160156 306.203125 355.902344 306.289062 356.644531 C 306.324219 357.152344 306.503906 357.597656 306.835938 357.984375 C 307.164062 358.371094 307.578125 358.617188 308.074219 358.726562 C 309.363281 359.101562 310.675781 359.328125 312.015625 359.398438 C 312.757812 359.472656 312.90625 359.765625 312.980469 360.367188 L 312.980469 360.886719 C 312.90625 363.488281 312.613281 363.789062 310.082031 363.640625 C 304.425781 363.269531 298.785156 363.339844 293.132812 363.640625 L 290.953125 363.714844 C 290.507812 363.714844 290.410156 363.5 290.285156 363.195312 C 290.066406 362.152344 290.066406 361.113281 290.285156 360.070312 C 290.363281 359.625 290.65625 359.527344 291.101562 359.402344 C 292.191406 359.253906 293.113281 359.03125 294.148438 358.859375 C 296.007812 358.414062 296.679688 357.660156 296.75 355.734375 L 296.964844 349.492188 L 296.964844 331.203125 C 296.964844 329.863281 296.445312 329.046875 295.257812 328.449219 C 293.917969 327.703125 292.503906 327.1875 291.015625 326.664062 C 290.570312 326.519531 290.121094 326.367188 289.753906 326.144531 C 288.785156 325.472656 288.664062 324.511719 289.605469 323.765625 C 290.039062 323.410156 290.53125 323.210938 291.089844 323.167969 C 295.851562 322.421875 300.457031 321.382812 304.917969 319.597656 C 305.441406 319.382812 305.664062 319.523438 305.886719 319.96875 C 306.109375 320.414062 306.1875 320.9375 306.105469 321.453125 L 305.886719 324.945312 C 305.886719 325.390625 305.671875 326.035156 306.035156 326.207031 C 306.480469 326.507812 306.78125 325.839844 307.152344 325.664062 C 309.355469 323.816406 311.757812 322.277344 314.363281 321.054688 C 316.671875 319.96875 319.042969 319.273438 321.726562 319.425781 C 326.707031 319.722656 330.277344 322.253906 332.578125 326.636719 C 333.773438 328.945312 334.285156 331.46875 334.507812 334.074219 L 334.726562 339.515625 L 334.804688 355.941406 C 334.878906 357.203125 335.324219 358.027344 336.585938 358.472656 C 337.898438 358.910156 339.238281 359.230469 340.601562 359.441406 C 341.800781 359.585938 341.863281 359.8125 341.941406 360.925781 L 341.941406 361.296875 C 341.792969 363.824219 341.640625 363.894531 339.113281 363.742188 C 333.5625 363.445312 328.011719 363.445312 322.460938 363.742188 C 321.714844 363.820312 320.972656 363.742188 320.28125 363.820312 C 319.835938 363.820312 319.539062 363.742188 319.46875 363.296875 C 319.320312 362.328125 319.167969 361.367188 319.390625 360.320312 C 319.46875 359.875 319.691406 359.652344 320.207031 359.578125 L 323.632812 359.03125 C 324.832031 358.734375 325.496094 357.945312 325.648438 356.855469 L 325.792969 354.773438 L 325.71875 339.238281 C 325.71875 337.453125 325.640625 335.667969 325.273438 333.882812 C 324.378906 330.074219 321.480469 327.355469 317.546875 326.976562 C 314.121094 326.605469 311.019531 327.496094 308.179688 329.351562 C 306.765625 330.246094 306.164062 331.507812 306.164062 333.066406 L 306.164062 344.296875 C 306.164062 344.078125 306.164062 344.078125 306.242188 344.078125 Z M 306.144531 343.929688 " fill-opacity="1" fill-rule="nonzero"/><path fill="#c2bfbf" d="M 523.878906 322.890625 C 523.0625 317.460938 521.050781 312.628906 517.554688 308.390625 C 514.464844 304.589844 510.648438 301.761719 506.105469 299.917969 C 501.425781 297.984375 496.4375 297.386719 491.382812 297.242188 C 489.300781 297.164062 460.902344 297.609375 458.816406 297.242188 C 458.296875 297.164062 457.925781 297.316406 457.621094 297.761719 C 457.25 298.308594 456.875 298.878906 456.652344 299.472656 C 455.761719 301.484375 455.761719 301.332031 457.914062 301.625 C 459.699219 301.925781 461.40625 302.070312 463.121094 302.59375 C 464.683594 303.117188 465.796875 304.007812 466.167969 305.714844 C 466.316406 306.53125 466.46875 332.699219 466.46875 344.894531 L 466.167969 353.597656 C 466.09375 354.265625 466.019531 354.9375 465.796875 355.53125 C 465.5 356.421875 464.980469 357.160156 464.089844 357.542969 C 463.101562 358.007812 462.058594 358.28125 460.96875 358.359375 C 458.953125 358.574219 458.660156 358.65625 457.992188 360.886719 L 457.773438 361.703125 C 457.625 362.671875 457.699219 362.820312 458.667969 362.820312 L 480.894531 363.035156 L 489.597656 362.890625 L 495.621094 362.144531 C 502.460938 360.882812 508.558594 358.054688 513.757812 353.523438 C 516.757812 350.871094 519.136719 347.75 520.898438 344.15625 C 522.980469 339.992188 523.871094 335.449219 524.09375 330.847656 C 524.464844 328.25 524.3125 325.570312 523.878906 322.894531 Z M 513.09375 333.441406 C 512.796875 338.203125 511.832031 342.8125 509.378906 346.972656 C 506.257812 352.402344 501.796875 356.191406 495.628906 357.527344 C 492.949219 358.070312 490.273438 358.34375 487.464844 357.972656 C 485.453125 357.753906 483.527344 357.527344 481.667969 356.855469 C 478.320312 355.660156 477.128906 353.59375 477.058594 350.328125 L 476.984375 305.503906 C 476.984375 302.828125 478.179688 302.238281 480.105469 302.15625 C 483.003906 301.941406 485.980469 302.011719 488.882812 302.304688 C 491.984375 302.605469 494.984375 303.332031 497.878906 304.480469 C 500.035156 305.378906 501.992188 306.59375 503.753906 308.125 C 507.769531 311.554688 510.445312 315.851562 511.914062 320.910156 C 513.113281 325 513.328125 329.160156 513.113281 333.324219 Z M 585.667969 340.734375 C 585.667969 340.285156 585.667969 339.917969 585.59375 339.472656 C 584.921875 335.378906 582.761719 332.257812 579.421875 329.878906 C 577.269531 328.320312 574.816406 327.28125 572.285156 326.535156 C 571.839844 326.386719 571.46875 326.234375 571.023438 326.164062 C 571.097656 325.792969 571.320312 325.71875 571.546875 325.640625 C 573.03125 324.898438 574.445312 324.082031 575.707031 322.964844 C 578.015625 321.035156 579.515625 318.652344 580.316406 315.753906 C 580.761719 314.191406 580.761719 312.628906 580.613281 310.992188 C 580.554688 310.035156 580.386719 309.097656 580.113281 308.175781 C 579.84375 307.253906 579.472656 306.375 579.003906 305.539062 C 578.53125 304.703125 577.976562 303.929688 577.332031 303.21875 C 576.6875 302.507812 575.972656 301.875 575.183594 301.324219 C 571.757812 298.796875 567.75 297.757812 563.585938 297.679688 C 555.554688 297.535156 547.457031 297.679688 539.429688 297.679688 C 537.125 297.679688 534.824219 297.828125 532.441406 297.464844 C 531.996094 297.386719 531.351562 297.246094 531.027344 297.761719 C 530.484375 298.730469 529.828125 299.695312 529.613281 300.808594 C 529.535156 301.332031 529.6875 301.625 530.28125 301.703125 L 535.410156 302.445312 C 537.425781 302.746094 538.839844 303.859375 538.980469 305.644531 C 539.125 306.878906 539.199219 308.117188 539.199219 309.359375 L 539.050781 323.257812 L 538.972656 350.765625 C 538.972656 352.394531 538.757812 353.960938 538.453125 355.59375 C 538.378906 356.125 538.164062 356.589844 537.816406 356.996094 C 537.464844 357.398438 537.035156 357.675781 536.519531 357.824219 C 535.035156 358.269531 533.621094 358.71875 532.058594 358.71875 C 531.628906 358.675781 531.234375 358.773438 530.875 359.011719 C 530.511719 359.246094 530.265625 359.570312 530.128906 359.980469 C 529.828125 360.648438 529.585938 361.394531 529.460938 362.0625 C 529.3125 362.953125 529.535156 363.257812 530.429688 363.152344 C 531.097656 363.074219 555.632812 363.671875 560.242188 363.226562 C 562.992188 362.925781 565.679688 362.558594 568.417969 361.742188 C 573.09375 360.257812 577.414062 358.097656 580.832031 354.453125 C 583.660156 351.476562 585.292969 347.90625 585.441406 343.746094 C 585.65625 342.777344 585.65625 341.816406 585.65625 340.769531 Z M 549.609375 310.269531 L 549.828125 304.324219 C 549.828125 303.207031 550.273438 302.691406 551.390625 302.460938 C 553.171875 302.09375 554.957031 302.246094 556.742188 302.316406 C 558.527344 302.460938 560.234375 302.6875 562.019531 303.207031 C 565.285156 304.175781 567.820312 306.035156 569.308594 309.152344 C 569.992188 310.589844 570.339844 312.101562 570.347656 313.691406 C 570.425781 315.773438 570.273438 317.78125 569.457031 319.785156 C 568.195312 322.535156 566.191406 324.320312 563.285156 324.84375 C 560.382812 325.363281 552.132812 325.140625 550.871094 325.140625 C 549.757812 325.140625 549.675781 324.996094 549.675781 323.878906 L 549.675781 316.878906 C 549.5 314.699219 549.476562 312.515625 549.597656 310.335938 Z M 573.765625 350.261719 C 572.503906 353.609375 570.195312 355.921875 566.925781 357.171875 C 565.140625 357.839844 563.359375 358.261719 561.488281 358.140625 C 559.179688 358.0625 556.878906 358.140625 554.578125 357.695312 C 551.453125 357.023438 550.039062 354.050781 549.816406 351.894531 C 549.445312 348.105469 549.671875 344.234375 549.597656 341.414062 L 549.597656 331.597656 C 549.597656 330.402344 549.746094 330.039062 551.015625 330.039062 L 558.003906 330.113281 L 562.765625 330.65625 C 566.109375 331.402344 569.15625 332.671875 571.539062 335.265625 C 573.472656 337.347656 574.515625 339.875 574.738281 342.625 C 574.957031 345.226562 574.816406 347.753906 573.847656 350.210938 Z M 573.765625 350.261719 " fill-opacity="1" fill-rule="nonzero"/><path fill="#47474a" d="M 384.878906 327.867188 L 386.8125 328.167969 C 388.894531 328.242188 391.347656 327.496094 392.089844 324.597656 C 392.503906 323.183594 392.503906 321.769531 392.089844 320.355469 C 391.640625 320.355469 391.417969 320.726562 391.195312 320.878906 C 390.082031 321.769531 388.820312 322.292969 387.480469 322.4375 C 384.804688 322.738281 382.128906 322.585938 379.527344 321.621094 L 375.882812 320.359375 C 373.316406 319.519531 370.6875 319.175781 367.992188 319.328125 C 364.203125 319.625 360.632812 320.886719 357.289062 322.671875 C 353.71875 324.601562 351.195312 327.503906 349.996094 331.445312 C 349.328125 333.753906 349.253906 336.125 349.550781 338.507812 C 350.296875 343.9375 353.121094 347.726562 358.175781 349.734375 C 358.472656 349.8125 358.695312 349.953125 358.992188 350.035156 C 359.660156 350.40625 359.734375 350.78125 359.136719 351.296875 L 357.277344 352.558594 L 352.816406 355.3125 C 351.699219 355.980469 351.554688 356.507812 351.921875 357.6875 C 352.375 359.105469 353.167969 360.296875 354.300781 361.257812 C 355.328125 362.140625 356.46875 362.832031 357.722656 363.339844 C 358.539062 363.710938 358.539062 363.886719 357.800781 364.539062 L 353.554688 367.585938 C 352.140625 368.671875 350.726562 369.761719 349.539062 371.152344 C 348.703125 372.050781 348.125 373.089844 347.808594 374.273438 C 347.492188 375.460938 347.476562 376.648438 347.757812 377.84375 C 348.03125 379.132812 348.5 380.351562 349.160156 381.492188 C 349.820312 382.636719 350.640625 383.648438 351.617188 384.535156 C 353.582031 386.355469 355.863281 387.59375 358.457031 388.25 C 362.617188 389.449219 366.933594 389.511719 371.171875 388.695312 C 377.265625 387.582031 382.59375 384.886719 386.785156 380.296875 C 389.683594 377.25 391.390625 373.683594 391.542969 369.417969 C 391.585938 368.804688 391.570312 368.195312 391.503906 367.585938 C 391.4375 366.976562 391.316406 366.378906 391.144531 365.789062 C 390.972656 365.199219 390.75 364.632812 390.476562 364.082031 C 390.203125 363.535156 389.882812 363.011719 389.519531 362.519531 C 389.152344 362.027344 388.75 361.570312 388.304688 361.148438 C 387.859375 360.726562 387.378906 360.347656 386.867188 360.007812 C 386.355469 359.671875 385.816406 359.382812 385.253906 359.140625 C 384.691406 358.898438 384.113281 358.707031 383.515625 358.566406 L 379.5 357.820312 L 367.230469 356.730469 C 365.894531 356.65625 364.554688 356.433594 363.441406 355.761719 C 362.027344 354.871094 361.65625 353.164062 362.546875 352.046875 C 363.21875 351.230469 364.035156 350.710938 365.078125 350.632812 L 367.457031 350.414062 C 369.804688 350.175781 372.054688 349.566406 374.207031 348.585938 C 376.355469 347.609375 378.292969 346.308594 380.015625 344.691406 C 381.894531 342.953125 383.160156 340.847656 383.808594 338.371094 C 384.699219 335.171875 384.699219 331.84375 383.957031 328.578125 C 383.738281 327.765625 383.808594 327.6875 384.847656 327.835938 Z M 366.65625 364.898438 C 367.101562 364.972656 367.546875 364.898438 367.992188 364.898438 C 371.117188 365.042969 374.316406 365.265625 377.363281 366.09375 C 378.359375 366.386719 379.324219 366.761719 380.261719 367.207031 C 383.238281 368.839844 384.351562 371.667969 383.976562 374.714844 C 383.53125 378.0625 381.671875 380.4375 378.769531 382.003906 C 376.839844 383.09375 374.679688 383.566406 372.449219 383.789062 C 371.632812 383.867188 370.886719 383.789062 370.070312 383.789062 C 367.472656 383.867188 364.941406 383.570312 362.488281 382.527344 C 360.78125 381.859375 359.367188 380.894531 358.101562 379.550781 C 355.503906 376.953125 354.296875 372.191406 358.179688 368.324219 C 360.558594 366.148438 363.238281 364.609375 366.65625 364.898438 Z M 375.132812 341.699219 C 373.570312 345.640625 370.148438 346.832031 366.730469 346.308594 C 363.609375 345.863281 361.300781 344.15625 359.824219 341.324219 C 357.890625 337.535156 357.375 333.601562 358.484375 329.503906 C 359.300781 326.457031 361.160156 324.152344 364.429688 323.628906 C 368.59375 322.882812 372.589844 324.375 374.691406 328.535156 C 375.777344 330.550781 376.253906 332.996094 376.253906 336.488281 C 376.175781 337.902344 375.882812 339.835938 375.136719 341.695312 Z M 281.460938 336.640625 C 280.792969 332.628906 279.308594 328.984375 276.554688 325.9375 C 272.464844 321.398438 267.261719 319.410156 261.386719 319.390625 C 256.257812 319.316406 251.429688 320.804688 247.113281 323.484375 C 244.988281 324.753906 243.175781 326.371094 241.671875 328.335938 C 240.167969 330.300781 239.082031 332.476562 238.414062 334.859375 C 237.152344 339.171875 237.214844 343.5625 238.195312 347.941406 C 240.796875 359.691406 249.871094 364.738281 260.71875 364 C 263.917969 363.78125 266.964844 362.738281 269.859375 361.324219 C 274.171875 359.308594 277.292969 356.117188 279.449219 351.878906 C 281.15625 348.386719 281.898438 344.664062 281.824219 340.429688 L 281.457031 336.636719 Z M 270.90625 353.148438 C 270.640625 353.984375 270.261719 354.765625 269.769531 355.488281 C 269.273438 356.214844 268.6875 356.855469 268.007812 357.410156 C 267.328125 357.964844 266.582031 358.410156 265.773438 358.746094 C 264.960938 359.085938 264.121094 359.300781 263.246094 359.390625 C 259.984375 359.835938 256.925781 359.023438 254.179688 357.085938 C 252.167969 355.605469 250.605469 353.746094 249.496094 351.507812 C 246.449219 345.265625 245.925781 338.726562 247.480469 332.035156 C 247.992188 329.921875 249.035156 328.109375 250.605469 326.605469 C 253.355469 324.074219 256.550781 323.484375 260.125 324.226562 C 263.550781 324.972656 266.148438 326.828125 268.285156 329.65625 C 270.421875 332.484375 271.40625 335.75 272 339.175781 C 272.300781 340.886719 272.300781 342.667969 272.371094 343.785156 C 272.371094 347.351562 272.070312 350.3125 270.957031 353.152344 Z M 443.90625 337.242188 C 443.363281 332.925781 441.753906 328.988281 438.699219 325.71875 C 434.683594 321.332031 429.480469 319.472656 423.683594 319.398438 C 418.703125 319.320312 414.09375 320.734375 409.855469 323.1875 C 405.097656 326.019531 401.828125 330.027344 400.5625 335.457031 C 399.8125 338.417969 399.585938 341.417969 399.894531 344.457031 C 400.199219 347.5 401.019531 350.394531 402.347656 353.148438 C 404.796875 358.351562 408.964844 361.699219 414.46875 363.183594 C 420.5625 364.816406 426.367188 364.074219 432.015625 361.324219 C 436.921875 358.945312 440.414062 355.230469 442.421875 350.171875 C 443.617188 347.195312 444.054688 344.003906 444.128906 340.28125 C 444.207031 339.613281 444.054688 338.421875 443.914062 337.234375 Z M 433.644531 352.183594 C 432.449219 356.199219 429.929688 358.796875 425.691406 359.398438 C 422.570312 359.84375 419.601562 359.097656 416.917969 357.3125 C 414.609375 355.753906 412.980469 353.667969 411.789062 351.222656 C 410.449219 348.621094 409.703125 345.867188 409.410156 343.042969 C 408.964844 339.550781 408.964844 336.136719 409.78125 332.636719 C 409.9375 331.945312 410.160156 331.277344 410.449219 330.628906 C 412.53125 325.425781 417.140625 323.046875 422.570312 324.238281 C 426.214844 325.054688 428.960938 327.066406 431.046875 330.113281 C 433.058594 333.089844 434.023438 336.359375 434.472656 339.90625 C 434.691406 341.320312 434.773438 342.804688 434.691406 344.066406 C 434.691406 346.96875 434.472656 349.644531 433.601562 352.242188 Z M 433.644531 352.183594 " fill-opacity="1" fill-rule="nonzero"/></svg>