<svg xmlns="http://www.w3.org/2000/svg" xmlns:xlink="http://www.w3.org/1999/xlink" width="820" zoomAndPan="magnify" viewBox="0 0 615 615.000004" height="820" preserveAspectRatio="xMidYMid meet" version="1.0"><defs><clipPath id="84df18c2b9"><path d="M 11 344 L 256 344 L 256 462.808594 L 11 462.808594 Z M 11 344 " clip-rule="nonzero"/></clipPath></defs><g clip-path="url(#84df18c2b9)"><path fill="#00618a" d="M 11.941406 435.828125 L 31.363281 435.828125 L 31.363281 359.109375 L 61.425781 426.015625 C 64.972656 434.082031 69.832031 436.976562 79.351562 436.976562 C 88.875 436.976562 93.542969 434.113281 97.09375 426.015625 L 127.160156 359.109375 L 127.160156 435.859375 L 146.582031 435.859375 L 146.582031 359.238281 C 146.582031 351.761719 143.589844 348.148438 137.429688 346.28125 C 122.679688 341.671875 112.78125 345.660156 108.300781 355.625 L 78.800781 421.652344 L 50.222656 355.597656 C 45.929688 345.628906 35.847656 341.644531 21.097656 346.253906 C 14.929688 348.121094 11.941406 351.738281 11.941406 359.207031 Z M 162.722656 373.363281 L 182.136719 373.363281 L 182.136719 415.648438 C 181.957031 417.945312 182.875 423.339844 193.511719 423.503906 C 198.941406 423.589844 235.402344 423.503906 235.742188 423.503906 L 235.742188 373.152344 L 255.199219 373.152344 C 255.285156 373.152344 255.179688 441.804688 255.183594 442.101562 C 255.289062 459.03125 234.1875 462.710938 224.464844 462.996094 L 163.148438 462.996094 L 163.148438 449.917969 L 224.574219 449.914062 C 237.074219 448.589844 235.597656 442.375 235.597656 440.28125 L 235.597656 435.183594 L 194.324219 435.183594 C 175.121094 435.011719 162.894531 426.621094 162.742188 416.96875 C 162.726562 416.105469 163.15625 373.777344 162.730469 373.359375 Z M 162.722656 373.363281 " fill-opacity="1" fill-rule="nonzero"/></g><path fill="#e48e00" d="M 270.167969 435.828125 L 326.003906 435.828125 C 332.535156 435.828125 338.886719 434.460938 343.933594 432.089844 C 352.339844 428.230469 356.445312 422.996094 356.445312 416.144531 L 356.445312 401.941406 C 356.445312 396.335938 351.777344 391.105469 342.628906 387.617188 C 337.773438 385.742188 331.800781 384.75 326.011719 384.75 L 302.480469 384.75 C 294.640625 384.75 290.90625 382.382812 289.972656 377.152344 C 289.785156 376.527344 289.785156 376 289.785156 375.40625 L 289.785156 366.5625 C 289.785156 366.0625 289.785156 365.5625 289.972656 364.941406 C 290.90625 360.953125 292.960938 359.832031 299.867188 359.179688 C 300.429688 359.179688 301.175781 359.054688 301.738281 359.054688 L 357.195312 359.054688 L 357.195312 346.101562 L 302.671875 346.101562 C 294.828125 346.101562 290.71875 346.597656 286.984375 347.71875 C 275.390625 351.332031 270.347656 357.09375 270.347656 367.0625 L 270.347656 378.398438 C 270.347656 387.121094 280.25 394.59375 296.863281 396.335938 C 298.734375 396.460938 300.597656 396.585938 302.464844 396.585938 L 322.632812 396.585938 C 323.378906 396.585938 324.128906 396.585938 324.6875 396.710938 C 330.847656 397.210938 333.464844 398.332031 335.332031 400.570312 C 336.480469 401.722656 336.828125 402.820312 336.828125 404.027344 L 336.828125 415.367188 C 336.828125 416.738281 335.894531 418.484375 334.027344 419.976562 C 332.347656 421.472656 329.546875 422.464844 325.808594 422.71875 C 325.0625 422.71875 324.503906 422.839844 323.757812 422.839844 L 270.164062 422.839844 L 270.164062 435.796875 Z M 477.589844 413.28125 C 477.589844 426.613281 487.484375 434.085938 507.464844 435.582031 C 509.328125 435.726562 511.195312 435.808594 513.066406 435.828125 L 563.671875 435.828125 L 563.671875 422.871094 L 512.691406 422.871094 C 501.304688 422.871094 497.003906 420.007812 497.003906 413.152344 L 497.003906 346.125 L 477.585938 346.125 L 477.585938 413.273438 Z M 368.832031 413.953125 L 368.832031 367.765625 C 368.832031 356.03125 377.066406 348.914062 393.34375 346.667969 C 395.082031 346.417969 396.832031 346.292969 398.585938 346.292969 L 435.449219 346.292969 C 437.265625 346.292969 439.074219 346.417969 440.875 346.667969 C 457.15625 348.914062 465.386719 356.027344 465.386719 367.765625 L 465.386719 413.953125 C 465.386719 423.476562 461.890625 428.570312 453.832031 431.890625 L 472.960938 449.175781 L 450.414062 449.175781 L 434.9375 435.191406 L 419.355469 436.179688 L 398.585938 436.179688 C 395.03125 436.179688 391.289062 435.679688 387.171875 434.554688 C 374.792969 431.1875 368.835938 424.691406 368.835938 413.953125 Z M 389.796875 412.800781 C 389.796875 413.425781 389.984375 414.050781 390.171875 414.800781 C 391.320312 420.171875 396.34375 423.167969 403.984375 423.167969 L 421.628906 423.167969 L 405.425781 408.523438 L 427.972656 408.523438 L 442.078125 421.292969 C 444.679688 419.90625 446.394531 417.78125 446.96875 415.050781 C 447.15625 414.429688 447.15625 413.804688 447.15625 413.179688 L 447.15625 368.894531 C 447.15625 368.394531 447.15625 367.742188 446.96875 367.144531 C 445.820312 362.152344 440.792969 359.28125 433.308594 359.28125 L 404.039062 359.28125 C 395.402344 359.28125 389.820312 363.023438 389.820312 368.894531 L 389.820312 412.835938 Z M 389.796875 412.800781 " fill-opacity="1" fill-rule="nonzero"/><path fill="#00618a" d="M 580.746094 324.632812 C 568.808594 324.308594 559.6875 325.417969 551.894531 328.707031 C 549.679688 329.644531 546.144531 329.667969 545.785156 332.445312 C 547 333.722656 547.195312 335.628906 548.15625 337.199219 C 550.019531 340.214844 553.167969 344.257812 555.964844 346.371094 C 559.027344 348.683594 562.183594 351.160156 565.472656 353.167969 C 571.316406 356.734375 577.839844 358.769531 583.460938 362.339844 C 586.777344 364.441406 590.070312 367.09375 593.304688 369.472656 C 594.902344 370.648438 595.984375 372.472656 598.054688 373.207031 L 598.054688 372.867188 C 596.960938 371.476562 596.683594 369.5625 595.679688 368.113281 L 591.269531 363.699219 C 586.953125 357.9375 581.476562 352.933594 575.652344 348.75 C 571.011719 345.414062 560.617188 340.910156 558.679688 335.5 L 558.339844 335.160156 C 561.632812 334.785156 565.488281 333.59375 568.53125 332.785156 C 573.632812 331.414062 578.195312 331.765625 583.46875 330.40625 L 590.597656 328.367188 L 590.597656 327.007812 C 587.933594 324.273438 586.03125 320.652344 583.128906 318.175781 C 575.53125 311.695312 567.230469 305.230469 558.691406 299.828125 C 553.953125 296.832031 548.101562 294.890625 543.078125 292.351562 C 541.386719 291.5 538.421875 291.058594 537.308594 289.632812 C 534.671875 286.269531 533.234375 282 531.199219 278.113281 C 526.9375 269.902344 522.753906 260.933594 518.976562 252.292969 C 516.402344 246.402344 514.71875 240.59375 511.511719 235.308594 C 496.097656 209.949219 479.503906 194.640625 453.808594 179.601562 C 448.339844 176.402344 441.757812 175.136719 434.796875 173.484375 L 423.59375 172.804688 C 421.316406 171.855469 418.945312 169.0625 416.800781 167.707031 C 408.289062 162.320312 386.453125 150.617188 380.144531 165.980469 C 376.164062 175.695312 386.09375 185.175781 389.648438 190.097656 C 392.140625 193.554688 395.335938 197.425781 397.113281 201.308594 C 398.285156 203.863281 398.492188 206.421875 399.492188 209.125 C 401.960938 215.75 404.105469 223.015625 407.296875 229.167969 C 408.910156 232.277344 410.6875 235.554688 412.730469 238.339844 C 413.980469 240.046875 416.125 240.796875 416.464844 243.4375 C 414.367188 246.375 414.246094 250.925781 413.066406 254.648438 C 407.761719 271.390625 409.761719 292.195312 417.480469 304.585938 C 419.847656 308.386719 425.421875 316.546875 433.09375 313.417969 C 439.800781 310.679688 438.273438 302.214844 440.222656 294.734375 C 440.65625 293.035156 440.390625 291.796875 441.242188 290.660156 L 441.242188 291 L 447.351562 303.226562 C 451.871094 310.515625 459.902344 318.132812 466.699219 323.273438 C 470.226562 325.9375 473.03125 330.546875 477.5625 332.105469 L 477.5625 331.765625 L 477.222656 331.765625 C 476.339844 330.382812 474.957031 329.816406 473.828125 328.714844 C 471.171875 326.105469 468.214844 322.867188 466.019531 319.882812 C 459.828125 311.476562 454.367188 302.28125 449.386719 292.703125 C 447.011719 288.132812 444.941406 283.089844 442.941406 278.4375 C 442.167969 276.644531 442.175781 273.933594 440.566406 273.003906 C 438.371094 276.414062 435.132812 279.167969 433.4375 283.191406 C 430.71875 289.628906 430.367188 297.472656 429.363281 305.613281 C 428.769531 305.828125 429.03125 305.679688 428.683594 305.953125 C 423.957031 304.8125 422.292969 299.941406 420.539062 295.761719 C 416.09375 285.191406 415.269531 268.179688 419.179688 256.019531 C 420.1875 252.875 424.765625 242.957031 422.914062 240.050781 C 422.03125 237.152344 419.113281 235.445312 417.480469 233.253906 C 415.46875 230.519531 413.445312 226.90625 412.050781 223.742188 C 408.414062 215.503906 406.714844 206.257812 402.886719 197.925781 C 401.054688 193.945312 397.964844 189.917969 395.421875 186.402344 C 392.605469 182.488281 389.453125 179.59375 387.273438 174.882812 C 386.496094 173.195312 385.445312 170.503906 386.59375 168.765625 C 386.707031 168.257812 386.949219 167.816406 387.316406 167.449219 C 387.683594 167.082031 388.125 166.839844 388.632812 166.726562 C 390.601562 165.210938 396.085938 167.230469 398.136719 168.085938 C 403.578125 170.351562 408.125 172.503906 412.734375 175.5625 C 414.953125 177.003906 417.1875 179.871094 419.863281 180.660156 L 422.914062 180.660156 C 427.691406 181.761719 433.042969 181.007812 437.507812 182.359375 C 445.398438 184.757812 452.46875 188.496094 458.890625 192.550781 C 478.457031 204.914062 494.453125 222.511719 505.394531 243.535156 C 507.15625 246.914062 507.917969 250.144531 509.46875 253.726562 C 512.597656 260.925781 516.539062 268.394531 519.652344 275.464844 C 522.761719 282.523438 525.78125 289.636719 530.175781 295.507812 C 532.484375 298.589844 541.398438 300.25 545.449219 301.960938 C 548.289062 303.160156 552.941406 304.414062 555.632812 306.035156 C 560.769531 309.136719 565.75 312.832031 570.570312 316.230469 C 572.980469 317.933594 580.386719 321.65625 580.753906 324.722656 Z M 580.746094 324.632812 " fill-opacity="1" fill-rule="nonzero"/><path fill="#00618a" d="M 429.03125 195.207031 C 426.542969 195.160156 424.785156 195.476562 422.921875 195.886719 L 422.921875 196.226562 L 423.261719 196.226562 C 424.449219 198.667969 426.542969 200.238281 428.011719 202.339844 L 431.40625 209.472656 L 431.746094 209.132812 C 433.847656 207.648438 434.8125 205.28125 434.796875 201.660156 C 433.953125 200.773438 433.832031 199.660156 433.097656 198.601562 C 432.128906 197.1875 430.222656 196.386719 429.027344 195.199219 Z M 429.03125 195.207031 " fill-opacity="1" fill-rule="evenodd"/><path fill="#e48e00" d="M 572.800781 422.503906 C 572.800781 431.058594 579.558594 436.824219 587.113281 436.824219 C 594.667969 436.824219 601.421875 431.058594 601.421875 422.503906 C 601.421875 413.949219 594.667969 408.183594 587.113281 408.183594 C 579.558594 408.183594 572.800781 413.949219 572.800781 422.503906 Z M 598.21875 422.503906 C 598.21875 428.996094 593.257812 433.847656 587.105469 433.847656 C 580.890625 433.847656 575.996094 428.996094 575.996094 422.503906 C 575.996094 416.011719 580.882812 411.160156 587.105469 411.160156 C 593.25 411.160156 598.21875 416.011719 598.21875 422.503906 Z M 590.964844 430.679688 L 594.167969 430.679688 L 589.476562 423.5 C 591.992188 423.234375 593.898438 422.007812 593.898438 419.03125 C 593.898438 415.707031 591.796875 414.335938 587.757812 414.335938 L 581.382812 414.335938 L 581.382812 430.683594 L 584.128906 430.683594 L 584.128906 423.617188 L 586.6875 423.617188 L 590.960938 430.683594 Z M 584.128906 421.316406 L 584.128906 416.621094 L 587.296875 416.621094 C 588.9375 416.621094 590.921875 416.925781 590.921875 418.839844 C 590.921875 421.128906 589.128906 421.324219 587.066406 421.324219 L 584.128906 421.324219 Z M 584.128906 421.316406 " fill-opacity="1" fill-rule="evenodd"/></svg>