<svg xmlns="http://www.w3.org/2000/svg" xmlns:xlink="http://www.w3.org/1999/xlink" width="820" zoomAndPan="magnify" viewBox="0 0 615 615.000004" height="820" preserveAspectRatio="xMidYMid meet" version="1.0"><defs><clipPath id="628b6aaf50"><path d="M 8.582031 126.714844 L 605.363281 126.714844 L 605.363281 486.878906 L 8.582031 486.878906 Z M 8.582031 126.714844 " clip-rule="nonzero"/></clipPath></defs><g clip-path="url(#628b6aaf50)"><path fill="#000000" d="M 149.445312 220.648438 L 261.972656 220.648438 L 261.972656 229.597656 L 159.757812 229.597656 L 159.757812 296.945312 L 255.878906 296.945312 L 255.878906 305.902344 L 159.757812 305.902344 L 159.757812 379.847656 L 263.136719 379.847656 L 263.136719 388.800781 L 149.445312 388.800781 L 149.445312 220.644531 Z M 272.050781 220.648438 L 284.007812 220.648438 L 336.988281 294.589844 L 391.136719 220.648438 L 464.789062 126.714844 L 343.78125 302.367188 L 406.144531 388.800781 L 393.710938 388.800781 L 336.988281 310.132812 L 280.019531 388.800781 L 267.832031 388.800781 L 330.648438 302.367188 Z M 410.597656 229.597656 L 410.597656 220.648438 L 538.828125 220.648438 L 538.828125 229.597656 L 479.75 229.597656 L 479.75 388.796875 L 469.441406 388.796875 L 469.441406 229.597656 L 410.597656 229.59375 Z M 8.675781 220.648438 L 21.570312 220.648438 L 199.359375 486.859375 L 125.890625 388.800781 L 19.464844 233.367188 L 18.996094 388.800781 L 8.679688 388.800781 L 8.679688 220.648438 Z M 537.78125 377.152344 C 535.683594 377.152344 534.097656 375.507812 534.097656 373.398438 C 534.097656 371.289062 535.683594 369.65625 537.78125 369.65625 C 539.914062 369.65625 541.472656 371.289062 541.472656 373.398438 C 541.472656 375.507812 539.914062 377.152344 537.78125 377.152344 Z M 547.917969 367.289062 L 553.441406 367.289062 C 553.511719 370.285156 555.699219 372.292969 558.90625 372.292969 C 562.496094 372.292969 564.523438 370.132812 564.523438 366.089844 L 564.523438 340.449219 L 570.148438 340.449219 L 570.148438 366.113281 C 570.148438 373.398438 565.933594 377.597656 558.964844 377.597656 C 552.414062 377.597656 547.917969 373.527344 547.917969 367.289062 Z M 577.503906 366.964844 L 583.070312 366.964844 C 583.539062 370.414062 586.90625 372.59375 591.753906 372.59375 C 596.261719 372.59375 599.570312 370.261719 599.570312 367.042969 C 599.570312 364.28125 597.460938 362.613281 592.671875 361.484375 L 588.011719 360.351562 C 581.464844 358.824219 578.480469 355.652344 578.480469 350.324219 C 578.480469 343.867188 583.746094 339.574219 591.648438 339.574219 C 599 339.574219 604.359375 343.867188 604.6875 349.976562 L 599.222656 349.976562 C 598.699219 346.628906 595.785156 344.542969 591.566406 344.542969 C 587.128906 344.542969 584.167969 346.6875 584.167969 349.953125 C 584.167969 352.539062 586.078125 354.019531 590.796875 355.128906 L 594.78125 356.109375 C 602.207031 357.84375 605.269531 360.863281 605.269531 366.308594 C 605.269531 373.246094 599.898438 377.597656 591.320312 377.597656 C 583.292969 377.597656 577.898438 373.457031 577.503906 366.964844 Z M 577.503906 366.964844 " fill-opacity="1" fill-rule="nonzero"/></g></svg>