<svg xmlns="http://www.w3.org/2000/svg" xmlns:xlink="http://www.w3.org/1999/xlink" width="820" zoomAndPan="magnify" viewBox="0 0 615 615.000004" height="820" preserveAspectRatio="xMidYMid meet" version="1.0"><defs><clipPath id="5d49832dec"><path d="M 0.5 209 L 285 209 L 285 405 L 0.5 405 Z M 0.5 209 " clip-rule="nonzero"/></clipPath><clipPath id="24e4565c72"><path d="M 0.5 199.828125 L 240 199.828125 L 240 413.980469 L 0.5 413.980469 Z M 0.5 199.828125 " clip-rule="nonzero"/></clipPath><clipPath id="87d42053b2"><path d="M 0.5 199.828125 L 241 199.828125 L 241 413.980469 L 0.5 413.980469 Z M 0.5 199.828125 " clip-rule="nonzero"/></clipPath></defs><path fill="#00d8ff" d="M 139.144531 306.714844 C 139.144531 307.390625 139.109375 308.0625 139.042969 308.730469 C 138.976562 309.402344 138.878906 310.066406 138.746094 310.726562 C 138.617188 311.386719 138.453125 312.039062 138.257812 312.683594 C 138.0625 313.328125 137.835938 313.960938 137.578125 314.585938 C 137.320312 315.207031 137.03125 315.816406 136.714844 316.410156 C 136.394531 317.003906 136.050781 317.578125 135.675781 318.140625 C 135.300781 318.699219 134.898438 319.238281 134.472656 319.761719 C 134.042969 320.28125 133.59375 320.777344 133.117188 321.253906 C 132.640625 321.730469 132.140625 322.183594 131.621094 322.609375 C 131.097656 323.039062 130.558594 323.4375 129.996094 323.8125 C 129.4375 324.1875 128.859375 324.53125 128.265625 324.847656 C 127.671875 325.167969 127.0625 325.453125 126.441406 325.710938 C 125.816406 325.96875 125.183594 326.195312 124.539062 326.390625 C 123.894531 326.585938 123.242188 326.75 122.578125 326.882812 C 121.917969 327.011719 121.253906 327.113281 120.582031 327.179688 C 119.910156 327.242188 119.238281 327.277344 118.566406 327.277344 C 117.890625 327.277344 117.21875 327.242188 116.546875 327.179688 C 115.875 327.113281 115.210938 327.011719 114.550781 326.882812 C 113.890625 326.75 113.234375 326.585938 112.589844 326.390625 C 111.945312 326.195312 111.3125 325.96875 110.6875 325.710938 C 110.066406 325.453125 109.457031 325.167969 108.863281 324.847656 C 108.269531 324.53125 107.691406 324.1875 107.132812 323.8125 C 106.570312 323.4375 106.03125 323.039062 105.507812 322.609375 C 104.988281 322.183594 104.488281 321.730469 104.011719 321.253906 C 103.535156 320.777344 103.085938 320.28125 102.65625 319.761719 C 102.230469 319.238281 101.828125 318.699219 101.453125 318.140625 C 101.078125 317.578125 100.734375 317.003906 100.414062 316.410156 C 100.097656 315.816406 99.808594 315.207031 99.550781 314.585938 C 99.292969 313.960938 99.066406 313.328125 98.871094 312.683594 C 98.675781 312.039062 98.511719 311.386719 98.382812 310.726562 C 98.25 310.066406 98.152344 309.402344 98.085938 308.730469 C 98.019531 308.0625 97.984375 307.390625 97.984375 306.714844 C 97.984375 306.042969 98.019531 305.371094 98.085938 304.699219 C 98.152344 304.03125 98.25 303.367188 98.382812 302.703125 C 98.511719 302.042969 98.675781 301.390625 98.871094 300.746094 C 99.066406 300.101562 99.292969 299.46875 99.550781 298.847656 C 99.808594 298.226562 100.097656 297.617188 100.414062 297.023438 C 100.734375 296.429688 101.078125 295.851562 101.453125 295.292969 C 101.828125 294.734375 102.230469 294.191406 102.65625 293.671875 C 103.085938 293.152344 103.535156 292.652344 104.011719 292.175781 C 104.488281 291.703125 104.988281 291.25 105.507812 290.824219 C 106.03125 290.394531 106.570312 289.996094 107.132812 289.621094 C 107.691406 289.246094 108.269531 288.902344 108.863281 288.582031 C 109.457031 288.265625 110.066406 287.976562 110.6875 287.71875 C 111.3125 287.464844 111.945312 287.234375 112.589844 287.039062 C 113.234375 286.84375 113.890625 286.683594 114.550781 286.550781 C 115.210938 286.417969 115.875 286.320312 116.546875 286.253906 C 117.21875 286.1875 117.890625 286.15625 118.566406 286.15625 C 119.238281 286.15625 119.910156 286.1875 120.582031 286.253906 C 121.253906 286.320312 121.917969 286.417969 122.578125 286.550781 C 123.242188 286.683594 123.894531 286.84375 124.539062 287.039062 C 125.183594 287.234375 125.816406 287.464844 126.441406 287.71875 C 127.0625 287.976562 127.671875 288.265625 128.265625 288.582031 C 128.859375 288.902344 129.4375 289.246094 129.996094 289.621094 C 130.558594 289.996094 131.097656 290.394531 131.621094 290.824219 C 132.140625 291.25 132.640625 291.703125 133.117188 292.175781 C 133.59375 292.652344 134.042969 293.152344 134.472656 293.671875 C 134.898438 294.191406 135.300781 294.734375 135.675781 295.292969 C 136.050781 295.851562 136.394531 296.429688 136.714844 297.023438 C 137.03125 297.617188 137.320312 298.226562 137.578125 298.847656 C 137.835938 299.46875 138.0625 300.101562 138.257812 300.746094 C 138.453125 301.390625 138.617188 302.042969 138.746094 302.703125 C 138.878906 303.367188 138.976562 304.03125 139.042969 304.699219 C 139.109375 305.371094 139.144531 306.042969 139.144531 306.714844 Z M 139.144531 306.714844 " fill-opacity="1" fill-rule="nonzero"/><g clip-path="url(#5d49832dec)"><path stroke-linecap="butt" transform="matrix(0.410205, 0, 0, 0.409846, 8.002143, 209.324492)" fill="none" stroke-linejoin="miter" d="M 269.534439 135.625642 C 336.888407 135.625642 399.461985 145.29962 446.637378 161.540465 C 503.487821 181.107634 538.436083 210.768145 538.436083 237.626539 C 538.436083 265.619123 501.39283 297.128651 440.352404 317.35346 C 394.205461 332.650735 333.469762 340.628192 269.534439 340.628192 C 203.98026 340.628192 141.901862 333.136817 95.231171 317.191432 C 36.180987 297.004748 0.623273 265.085386 0.623273 237.626539 C 0.623273 210.987359 33.990769 181.555592 90.031784 162.017016 C 137.388108 145.499771 201.504361 135.625642 269.524917 135.625642 Z M 269.534439 135.625642 " stroke="#00d8ff" stroke-width="24" stroke-opacity="1" stroke-miterlimit="4"/></g><g clip-path="url(#24e4565c72)"><path stroke-linecap="butt" transform="matrix(0.410205, 0, 0, 0.409846, 8.002143, 209.324492)" fill="none" stroke-linejoin="miter" d="M 180.73538 186.921552 C 214.388557 128.572693 254.021982 79.202047 291.655642 46.443957 C 337.012201 6.976034 380.159498 -8.483269 403.432945 4.936397 C 427.677707 18.918392 436.47667 66.754545 423.497247 129.735476 C 413.698402 177.352415 390.263069 233.947568 358.323976 289.332282 C 325.575454 346.127587 288.075112 396.155872 250.936631 428.60897 C 203.961215 469.678103 158.537996 484.536952 134.759846 470.821825 C 111.676852 457.516531 102.858844 413.902617 113.924206 355.591882 C 123.285008 306.316547 146.758432 245.851803 180.725858 186.931083 Z M 180.73538 186.921552 " stroke="#00d8ff" stroke-width="24" stroke-opacity="1" stroke-miterlimit="4"/></g><g clip-path="url(#87d42053b2)"><path stroke-linecap="butt" transform="matrix(0.410205, 0, 0, 0.409846, 8.002143, 209.324492)" fill="none" stroke-linejoin="miter" d="M 180.821085 289.475248 C 147.082203 231.202637 124.103959 172.196137 114.514613 123.225795 C 102.963593 64.228826 111.124536 19.118544 134.369416 5.660754 C 158.595132 -8.359366 204.427826 7.900542 252.517397 50.599478 C 288.865495 82.881018 326.203951 131.441527 358.238271 186.769056 C 391.08202 243.507174 415.698167 300.97918 425.268467 349.349069 C 437.390848 410.566763 427.58248 457.325911 403.813853 471.088693 C 380.759427 484.441642 338.5644 470.30715 293.579225 431.592177 C 255.564657 398.881742 214.89326 348.338782 180.821085 289.465717 Z M 180.821085 289.475248 " stroke="#00d8ff" stroke-width="24" stroke-opacity="1" stroke-miterlimit="4"/></g><path fill="#00d8ff" d="M 346.992188 359.25 L 321.769531 321.175781 C 334.515625 320.050781 346.003906 310.820312 346.003906 293.960938 C 346.003906 276.804688 333.820312 265.828125 316.726562 265.828125 L 279.1875 265.828125 L 279.1875 359.175781 L 290.816406 359.175781 L 290.816406 322.085938 L 309.449219 322.085938 L 333.261719 359.175781 Z M 315.332031 311.941406 L 290.820312 311.941406 L 290.820312 276.25 L 315.332031 276.25 C 326.40625 276.25 333.964844 283.527344 333.964844 294.027344 C 333.964844 304.527344 326.398438 311.953125 315.332031 311.953125 Z M 390.28125 360.921875 C 401.351562 360.921875 410.453125 357.285156 417.179688 350.570312 L 412.136719 343.707031 C 406.804688 349.167969 398.96875 352.246094 391.265625 352.246094 C 376.699219 352.246094 367.726562 341.609375 366.886719 328.875 L 421.65625 328.875 L 421.65625 326.214844 C 421.65625 305.921875 409.605469 289.960938 389.148438 289.960938 C 369.816406 289.960938 355.816406 305.78125 355.816406 325.375 C 355.816406 346.511719 370.246094 360.871094 390.273438 360.871094 Z M 411.300781 321.167969 L 366.894531 321.167969 C 367.457031 310.816406 374.589844 298.628906 389.027344 298.628906 C 404.4375 298.628906 411.160156 311.089844 411.300781 321.167969 Z M 491.433594 359.242188 L 491.433594 312.773438 C 491.433594 296.398438 479.535156 289.957031 465.242188 289.957031 C 454.167969 289.957031 445.488281 293.59375 438.207031 301.15625 L 443.109375 308.433594 C 449.128906 301.996094 455.71875 299.054688 463.84375 299.054688 C 473.648438 299.054688 480.9375 304.230469 480.9375 313.332031 L 480.9375 325.503906 C 475.472656 319.203125 467.769531 316.265625 458.519531 316.265625 C 447.035156 316.265625 434.835938 323.40625 434.835938 338.519531 C 434.835938 353.214844 447.023438 360.917969 458.519531 360.917969 C 467.625 360.917969 475.335938 357.699219 480.9375 351.539062 L 480.9375 359.230469 Z M 462.304688 353.363281 C 452.5 353.363281 445.628906 347.210938 445.628906 338.667969 C 445.628906 329.988281 452.5 323.832031 462.304688 323.832031 C 469.730469 323.832031 476.871094 326.628906 480.9375 332.230469 L 480.9375 344.96875 C 476.875 350.5625 469.730469 353.367188 462.304688 353.367188 Z M 542.238281 360.921875 C 554.5625 360.921875 561.847656 355.882812 567.035156 349.167969 L 560.027344 342.730469 C 555.546875 348.746094 549.804688 351.546875 542.859375 351.546875 C 528.429688 351.546875 519.46875 340.347656 519.46875 325.375 C 519.46875 310.402344 528.433594 299.34375 542.859375 299.34375 C 549.863281 299.34375 555.605469 302.007812 560.027344 308.160156 L 567.035156 301.722656 C 561.851562 295.003906 554.5625 289.96875 542.238281 289.96875 C 522.0625 289.96875 508.476562 305.367188 508.476562 325.378906 C 508.476562 345.535156 522.0625 360.875 542.238281 360.875 Z M 598.839844 360.921875 C 605 360.921875 608.789062 359.101562 611.453125 356.585938 L 608.375 348.746094 C 606.96875 350.285156 604.230469 351.546875 601.226562 351.546875 C 596.609375 351.546875 594.359375 347.90625 594.359375 342.867188 L 594.359375 300.878906 L 608.09375 300.878906 L 608.09375 291.644531 L 594.359375 291.644531 L 594.359375 273.167969 L 583.847656 273.167969 L 583.847656 291.644531 L 572.640625 291.644531 L 572.640625 300.882812 L 583.847656 300.882812 L 583.847656 345.117188 C 583.847656 355.195312 588.894531 360.933594 598.839844 360.933594 Z M 598.839844 360.921875 " fill-opacity="1" fill-rule="evenodd"/></svg>