<svg xmlns="http://www.w3.org/2000/svg" xmlns:xlink="http://www.w3.org/1999/xlink" width="820" zoomAndPan="magnify" viewBox="0 0 615 615.000004" height="820" preserveAspectRatio="xMidYMid meet" version="1.0"><defs><clipPath id="dad5f3e37b"><path d="M 26.589844 26.089844 L 589.675781 26.089844 L 589.675781 589.175781 L 26.589844 589.175781 Z M 26.589844 26.089844 " clip-rule="nonzero"/></clipPath></defs><g clip-path="url(#dad5f3e37b)"><path fill="#007acc" d="M 26.589844 589.175781 L 589.675781 589.175781 L 589.675781 26.089844 L 26.589844 26.089844 Z M 26.589844 589.175781 " fill-opacity="1" fill-rule="nonzero"/></g><path fill="#ffffff" d="M 151.085938 309.480469 L 150.910156 332.554688 L 224.199219 332.554688 L 224.199219 540.808594 L 276.039062 540.808594 L 276.039062 332.554688 L 349.332031 332.554688 L 349.332031 309.941406 C 349.332031 297.429688 349.0625 286.957031 348.707031 286.695312 C 348.4375 286.34375 303.835938 286.167969 249.757812 286.253906 L 151.347656 286.519531 Z M 151.085938 309.480469 " fill-opacity="1" fill-rule="nonzero"/><path fill="#ffffff" d="M 480.953125 285.878906 C 495.25 289.445312 506.160156 295.800781 516.167969 306.160156 C 521.335938 311.703125 529.035156 321.796875 529.648438 324.21875 C 529.824219 324.945312 505.34375 341.375 490.496094 350.589844 C 489.96875 350.941406 487.835938 348.613281 485.417969 345.046875 C 478.179688 334.488281 470.570312 329.9375 458.957031 329.144531 C 441.886719 327.980469 430.890625 336.910156 430.976562 351.84375 C 430.976562 356.222656 431.617188 358.816406 433.398438 362.378906 C 437.160156 370.167969 444.132812 374.808594 466.015625 384.289062 C 506.335938 401.621094 523.578125 413.058594 534.3125 429.335938 C 546.277344 447.480469 548.960938 476.425781 540.824219 497.960938 C 531.894531 521.386719 509.722656 537.289062 478.53125 542.566406 C 468.875 544.261719 446 543.996094 435.617188 542.128906 C 413.007812 538.101562 391.5625 526.929688 378.34375 512.28125 C 373.152344 506.5625 363.054688 491.625 363.671875 490.546875 C 363.957031 490.195312 366.265625 488.765625 368.863281 487.25 C 371.371094 485.820312 380.851562 480.363281 389.78125 475.171875 L 405.945312 465.804688 L 409.355469 470.796875 C 414.085938 478.03125 424.46875 487.953125 430.714844 491.273438 C 448.683594 500.730469 473.339844 499.390625 485.503906 488.503906 C 490.695312 483.75 492.828125 478.847656 492.828125 471.609375 C 492.828125 465.078125 492.039062 462.21875 488.628906 457.3125 C 484.25 451.042969 475.320312 445.765625 449.9375 434.789062 C 420.882812 422.273438 408.367188 414.488281 396.929688 402.148438 C 390.308594 395 384.0625 383.5625 381.464844 373.992188 C 379.308594 366.054688 378.78125 346.125 380.476562 338.074219 C 386.480469 310.007812 407.664062 290.433594 438.214844 284.625 C 448.132812 282.757812 471.207031 283.460938 480.953125 285.878906 Z M 480.953125 285.878906 " fill-opacity="1" fill-rule="nonzero"/></svg>